<mxfile host="app.diagrams.net" modified="2021-04-27T11:26:44.337Z" agent="5.0 (Windows NT 10.0; WOW64) AppleWebKit/537.36 (KHTML, like Gecko) Chrome/88.0.4324.150 Safari/537.36" etag="as1dTdc7xlcWsD0jQUi7" version="13.10.4" type="github">
  <diagram id="epAC4Sw8KyaGYTRE4gcv" name="第 1 页">
    <mxGraphModel dx="1278" dy="556" grid="1" gridSize="10" guides="1" tooltips="1" connect="1" arrows="1" fold="1" page="1" pageScale="1" pageWidth="827" pageHeight="1169" math="0" shadow="0">
      <root>
        <mxCell id="0" />
        <mxCell id="1" parent="0" />
        <mxCell id="M1EEBKgpfXETS7wUbJfp-3" value="" style="edgeStyle=orthogonalEdgeStyle;rounded=0;orthogonalLoop=1;jettySize=auto;html=1;" edge="1" parent="1" source="M1EEBKgpfXETS7wUbJfp-1" target="M1EEBKgpfXETS7wUbJfp-2">
          <mxGeometry relative="1" as="geometry" />
        </mxCell>
        <mxCell id="M1EEBKgpfXETS7wUbJfp-1" value="项目规划" style="rounded=0;whiteSpace=wrap;html=1;" vertex="1" parent="1">
          <mxGeometry x="150" y="70" width="120" height="60" as="geometry" />
        </mxCell>
        <mxCell id="M1EEBKgpfXETS7wUbJfp-5" value="" style="edgeStyle=orthogonalEdgeStyle;rounded=0;orthogonalLoop=1;jettySize=auto;html=1;" edge="1" parent="1" source="M1EEBKgpfXETS7wUbJfp-2" target="M1EEBKgpfXETS7wUbJfp-4">
          <mxGeometry relative="1" as="geometry" />
        </mxCell>
        <mxCell id="M1EEBKgpfXETS7wUbJfp-2" value="功能规划" style="whiteSpace=wrap;html=1;rounded=0;" vertex="1" parent="1">
          <mxGeometry x="330" y="70" width="120" height="60" as="geometry" />
        </mxCell>
        <mxCell id="M1EEBKgpfXETS7wUbJfp-7" value="" style="edgeStyle=orthogonalEdgeStyle;rounded=0;orthogonalLoop=1;jettySize=auto;html=1;" edge="1" parent="1" source="M1EEBKgpfXETS7wUbJfp-4" target="M1EEBKgpfXETS7wUbJfp-6">
          <mxGeometry relative="1" as="geometry" />
        </mxCell>
        <mxCell id="M1EEBKgpfXETS7wUbJfp-4" value="页面设计" style="whiteSpace=wrap;html=1;rounded=0;" vertex="1" parent="1">
          <mxGeometry x="500" y="70" width="120" height="60" as="geometry" />
        </mxCell>
        <mxCell id="M1EEBKgpfXETS7wUbJfp-9" value="" style="edgeStyle=orthogonalEdgeStyle;rounded=0;orthogonalLoop=1;jettySize=auto;html=1;" edge="1" parent="1" source="M1EEBKgpfXETS7wUbJfp-6" target="M1EEBKgpfXETS7wUbJfp-8">
          <mxGeometry relative="1" as="geometry" />
        </mxCell>
        <mxCell id="M1EEBKgpfXETS7wUbJfp-6" value="责任划分" style="whiteSpace=wrap;html=1;rounded=0;" vertex="1" parent="1">
          <mxGeometry x="500" y="180" width="120" height="60" as="geometry" />
        </mxCell>
        <mxCell id="M1EEBKgpfXETS7wUbJfp-11" value="" style="edgeStyle=orthogonalEdgeStyle;rounded=0;orthogonalLoop=1;jettySize=auto;html=1;" edge="1" parent="1" source="M1EEBKgpfXETS7wUbJfp-8" target="M1EEBKgpfXETS7wUbJfp-10">
          <mxGeometry relative="1" as="geometry" />
        </mxCell>
        <mxCell id="M1EEBKgpfXETS7wUbJfp-8" value="开发工作" style="whiteSpace=wrap;html=1;rounded=0;" vertex="1" parent="1">
          <mxGeometry x="500" y="320" width="120" height="60" as="geometry" />
        </mxCell>
        <mxCell id="M1EEBKgpfXETS7wUbJfp-15" value="" style="edgeStyle=orthogonalEdgeStyle;rounded=0;orthogonalLoop=1;jettySize=auto;html=1;" edge="1" parent="1" source="M1EEBKgpfXETS7wUbJfp-10" target="M1EEBKgpfXETS7wUbJfp-14">
          <mxGeometry relative="1" as="geometry" />
        </mxCell>
        <mxCell id="M1EEBKgpfXETS7wUbJfp-10" value="测试运行" style="whiteSpace=wrap;html=1;rounded=0;" vertex="1" parent="1">
          <mxGeometry x="300" y="320" width="120" height="60" as="geometry" />
        </mxCell>
        <mxCell id="M1EEBKgpfXETS7wUbJfp-22" value="" style="edgeStyle=orthogonalEdgeStyle;rounded=0;orthogonalLoop=1;jettySize=auto;html=1;" edge="1" parent="1" source="M1EEBKgpfXETS7wUbJfp-14" target="M1EEBKgpfXETS7wUbJfp-21">
          <mxGeometry relative="1" as="geometry">
            <Array as="points">
              <mxPoint x="160" y="450" />
            </Array>
          </mxGeometry>
        </mxCell>
        <mxCell id="M1EEBKgpfXETS7wUbJfp-24" value="发现错误" style="edgeLabel;html=1;align=center;verticalAlign=middle;resizable=0;points=[];" vertex="1" connectable="0" parent="M1EEBKgpfXETS7wUbJfp-22">
          <mxGeometry x="0.048" y="3" relative="1" as="geometry">
            <mxPoint as="offset" />
          </mxGeometry>
        </mxCell>
        <mxCell id="M1EEBKgpfXETS7wUbJfp-26" value="" style="edgeStyle=orthogonalEdgeStyle;rounded=0;orthogonalLoop=1;jettySize=auto;html=1;" edge="1" parent="1" source="M1EEBKgpfXETS7wUbJfp-14" target="M1EEBKgpfXETS7wUbJfp-25">
          <mxGeometry relative="1" as="geometry" />
        </mxCell>
        <mxCell id="M1EEBKgpfXETS7wUbJfp-27" value="运行正常" style="edgeLabel;html=1;align=center;verticalAlign=middle;resizable=0;points=[];" vertex="1" connectable="0" parent="M1EEBKgpfXETS7wUbJfp-26">
          <mxGeometry x="-0.2089" y="1" relative="1" as="geometry">
            <mxPoint as="offset" />
          </mxGeometry>
        </mxCell>
        <mxCell id="M1EEBKgpfXETS7wUbJfp-14" value="&lt;span&gt;错误排查&lt;/span&gt;" style="rhombus;whiteSpace=wrap;html=1;rounded=0;" vertex="1" parent="1">
          <mxGeometry x="120" y="310" width="80" height="80" as="geometry" />
        </mxCell>
        <mxCell id="M1EEBKgpfXETS7wUbJfp-23" style="edgeStyle=orthogonalEdgeStyle;rounded=0;orthogonalLoop=1;jettySize=auto;html=1;entryX=0.5;entryY=1;entryDx=0;entryDy=0;" edge="1" parent="1" source="M1EEBKgpfXETS7wUbJfp-21" target="M1EEBKgpfXETS7wUbJfp-8">
          <mxGeometry relative="1" as="geometry" />
        </mxCell>
        <mxCell id="M1EEBKgpfXETS7wUbJfp-21" value="制定修改计划" style="whiteSpace=wrap;html=1;rounded=0;" vertex="1" parent="1">
          <mxGeometry x="300" y="420" width="120" height="60" as="geometry" />
        </mxCell>
        <mxCell id="M1EEBKgpfXETS7wUbJfp-25" value="部署上线" style="whiteSpace=wrap;html=1;rounded=0;" vertex="1" parent="1">
          <mxGeometry x="100" y="180" width="120" height="60" as="geometry" />
        </mxCell>
      </root>
    </mxGraphModel>
  </diagram>
</mxfile>
